<?xml version="1.0" standalone="no"?>
<!DOCTYPE svg PUBLIC "-//W3C//DTD SVG 20010904//EN"
 "http://www.w3.org/TR/2001/REC-SVG-20010904/DTD/svg10.dtd">
<svg version="1.0" xmlns="http://www.w3.org/2000/svg"
 width="424.000000pt" height="401.000000pt" viewBox="0 0 424.000000 401.000000"
 preserveAspectRatio="xMidYMid meet">
<metadata>
Created by potrace 1.16, written by Peter Selinger 2001-2019
</metadata>
<path style="fill:#28ACEA;" 
d="M248.082,0.003C111.07,0.003,0,111.063,0,248.085c0,137.001,111.07,248.07,248.082,248.07
	c137.006,0,248.076-111.069,248.076-248.07C496.158,111.062,385.088,0.003,248.082,0.003z"/>

<g transform="translate(0.000000,401.000000) scale(0.100000,-0.100000)"
fill="#000000" stroke="none">
<path d="M2700 3396 c-19 -8 -71 -30 -116 -50 -90 -40 -128 -50 -389 -100
-241 -47 -335 -75 -495 -151 -74 -36 -197 -84 -273 -109 -144 -47 -187 -67
-187 -90 0 -28 33 -38 152 -48 68 -6 124 -11 125 -12 1 -1 10 -64 21 -141 11
-82 23 -139 29 -138 6 1 12 -35 16 -90 7 -126 42 -228 122 -362 36 -60 70
-128 76 -150 16 -56 7 -140 -21 -208 -21 -51 -27 -57 -47 -52 -19 4 -28 -5
-63 -63 -34 -58 -71 -96 -232 -237 l-192 -167 -40 -101 -39 -101 44 -39 c109
-98 334 -225 489 -275 192 -63 400 -88 606 -72 137 11 174 18 327 62 66 19
107 36 107 44 0 7 -24 83 -54 168 -54 153 -56 157 -143 265 -48 61 -96 113
-107 116 -10 4 -28 28 -39 53 -31 67 -30 219 0 277 47 90 92 107 266 103 l125
-3 32 30 c31 30 31 31 25 102 -7 65 -5 73 14 89 23 20 28 49 10 59 -7 5 -3 15
11 30 20 22 21 25 6 53 -9 17 -16 36 -16 42 0 5 25 21 55 35 30 13 55 28 55
32 0 5 -36 64 -80 132 -81 126 -89 150 -68 196 8 17 8 32 1 48 -10 22 -10 22
86 24 104 3 163 13 168 29 2 5 -55 39 -127 74 l-130 64 6 31 c4 22 1 35 -10
44 -14 12 -14 16 -1 34 21 30 19 44 -11 74 -24 24 -25 30 -19 87 4 33 15 112
26 173 18 112 17 164 -5 182 -21 18 -61 21 -96 7z m72 -54 c11 -51 -47 -153
-111 -195 -97 -64 -111 -69 -416 -143 -330 -80 -345 -82 -610 -99 -281 -17
-353 -19 -340 -6 6 5 66 26 135 46 69 20 199 70 290 112 195 90 241 104 465
143 231 41 311 62 429 114 139 61 151 63 158 28z m5 -427 c3 -9 3 -18 0 -21
-3 -3 -90 -23 -194 -43 -179 -36 -253 -60 -253 -81 0 -18 92 -10 245 19 200
39 199 39 203 19 4 -20 5 -19 -193 -58 -127 -25 -174 -30 -227 -25 -63 6 -71
4 -134 -29 -90 -48 -122 -47 -149 5 -21 40 -19 57 13 88 27 27 27 27 110 18
80 -10 84 -9 133 17 35 20 105 39 237 66 103 21 191 38 195 39 4 1 10 -6 14
-14z m-1134 -1555 c55 -11 58 -13 43 -29 -15 -16 -22 -17 -89 -5 -125 24 -122
22 -103 43 14 15 24 17 54 11 20 -5 63 -14 95 -20z m-88 -62 c67 -12 75 -17
51 -37 -10 -9 -37 -7 -110 6 -93 16 -95 17 -79 36 13 13 26 17 45 13 16 -3 57
-11 93 -18z m-17 -98 c-19 -15 -28 -15 -92 -3 -124 23 -121 21 -102 42 16 17
20 17 116 -2 96 -19 98 -20 78 -37z"/>
<path d="M2118 2769 c-31 -18 -16 -69 21 -69 8 0 35 12 60 27 l46 27 -50 13
c-59 15 -56 15 -77 2z"/>
</g>

</svg>
