<?xml version="1.0" standalone="no"?>
<!DOCTYPE svg PUBLIC "-//W3C//DTD SVG 20010904//EN"
 "http://www.w3.org/TR/2001/REC-SVG-20010904/DTD/svg10.dtd">
<svg version="1.0" xmlns="http://www.w3.org/2000/svg"
 width="408.000000pt" height="374.000000pt" viewBox="0 0 408.000000 374.000000"
 preserveAspectRatio="xMidYMid meet">
<metadata>
Created by potrace 1.16, written by Peter Selinger 2001-2019
</metadata>
<g transform="translate(0.000000,374.000000) scale(0.100000,-0.100000)"
fill="#000000" stroke="none">
<path d="M1880 3396 c-338 -53 -623 -198 -852 -432 -124 -128 -197 -229 -270
-376 -210 -426 -210 -900 0 -1325 71 -145 144 -245 266 -371 123 -128 249
-220 399 -294 424 -210 900 -210 1324 0 283 140 525 382 665 665 147 298 193
633 128 947 -122 596 -568 1043 -1165 1170 -128 27 -373 35 -495 16z m128
-166 c-6 -107 -19 -123 -145 -185 -125 -62 -173 -98 -173 -129 0 -38 -61 -51
-80 -17 -33 63 31 143 167 206 43 20 89 42 102 48 29 15 41 45 41 108 l0 49
46 0 47 0 -5 -80z m-651 -246 c19 -112 13 -190 -20 -247 -31 -51 -60 -73 -168
-127 -63 -31 -104 -61 -164 -119 -87 -85 -128 -111 -174 -111 -55 0 -61 6 -43
51 12 30 20 39 39 39 17 0 50 25 110 85 70 68 106 95 194 140 63 33 115 68
125 83 24 36 27 94 11 185 l-14 79 36 24 c19 13 39 20 44 15 4 -4 15 -48 24
-97z m1225 -312 c125 -61 208 -184 216 -316 7 -119 -26 -222 -126 -389 -80
-132 -153 -285 -188 -392 -35 -107 -53 -128 -97 -108 -17 8 -28 30 -46 91 -26
92 -108 266 -182 388 -107 178 -144 289 -137 410 9 153 118 290 271 340 26 9
76 13 133 11 79 -2 100 -7 156 -35z m-1729 -487 c60 -21 106 -57 127 -101 16
-33 20 -61 20 -152 0 -72 5 -124 14 -145 7 -18 52 -68 99 -111 140 -126 161
-192 110 -348 -22 -68 -27 -103 -27 -193 -1 -97 -4 -115 -24 -147 -33 -53 -57
-57 -98 -17 l-35 34 25 8 c35 12 40 29 41 147 1 85 6 121 29 192 41 128 37
140 -84 256 -128 122 -141 150 -141 308 0 111 -1 116 -27 145 -20 22 -45 33
-97 46 -38 9 -72 17 -73 19 -2 1 -1 21 3 44 l7 42 47 -7 c25 -4 63 -13 84 -20z
m2347 -700 c22 -27 14 -99 -16 -155 -57 -104 -136 -169 -190 -156 -19 5 -24
13 -24 40 0 30 5 37 37 53 52 25 104 102 111 161 2 26 9 53 15 60 13 17 52 15
67 -3z m-1266 -720 c97 -20 204 -77 281 -148 73 -66 72 -77 -2 -77 -34 0 -53
8 -90 36 -145 111 -323 141 -504 85 l-67 -21 -53 25 -53 24 56 25 c138 61 296
80 432 51z"/>
<path d="M2375 2500 c-108 -25 -170 -122 -144 -226 35 -138 208 -185 309 -84
62 62 71 150 23 232 -32 56 -123 93 -188 78z"/>
</g>
</svg>
